<?xml version="1.0" encoding="UTF-8"?>
<svg version="1.1" xmlns="http://www.w3.org/2000/svg" width="32" height="32">
<path d="M0 0 C10.56 0 21.12 0 32 0 C32 10.56 32 21.12 32 32 C21.44 32 10.88 32 0 32 C0 21.44 0 10.88 0 0 Z " fill="#FE0202" transform="translate(0,0)"/>
<path d="M0 0 C2.05078125 0.03255208 4.1015625 0.06510417 6.15234375 0.09765625 C6.48234375 1.41765625 6.81234375 2.73765625 7.15234375 4.09765625 C5.83234375 4.42765625 4.51234375 4.75765625 3.15234375 5.09765625 C3.15234375 4.43765625 3.15234375 3.77765625 3.15234375 3.09765625 C2.49234375 3.09765625 1.83234375 3.09765625 1.15234375 3.09765625 C1.15234375 8.70765625 1.15234375 14.31765625 1.15234375 20.09765625 C-0.16765625 19.76765625 -1.48765625 19.43765625 -2.84765625 19.09765625 C-2.87449612 16.11843032 -2.89441662 13.1394433 -2.91015625 10.16015625 C-2.91853516 9.31001953 -2.92691406 8.45988281 -2.93554688 7.58398438 C-2.93876953 6.77509766 -2.94199219 5.96621094 -2.9453125 5.1328125 C-2.95054932 4.38394775 -2.95578613 3.63508301 -2.96118164 2.86352539 C-2.80271766 0.39864378 -2.46310433 0.13018522 0 0 Z " fill="#FEF7F7" transform="translate(7.84765625,5.90234375)"/>
<path d="M0 0 C0.99 0 1.98 0 3 0 C3 6.6 3 13.2 3 20 C1.68 19.67 0.36 19.34 -1 19 C-1.02683987 16.02077407 -1.04676037 13.04178705 -1.0625 10.0625 C-1.07087891 9.21236328 -1.07925781 8.36222656 -1.08789062 7.48632812 C-1.09111328 6.67744141 -1.09433594 5.86855469 -1.09765625 5.03515625 C-1.10289307 4.2862915 -1.10812988 3.53742676 -1.11352539 2.76586914 C-1 1 -1 1 0 0 Z " fill="#FEF4F4" transform="translate(18,6)"/>
<path d="M0 0 C2.64 0 5.28 0 8 0 C8.33 1.32 8.66 2.64 9 4 C7.68 4.33 6.36 4.66 5 5 C5 4.34 5 3.68 5 3 C2.525 2.01 2.525 2.01 0 1 C0 0.67 0 0.34 0 0 Z " fill="#FED7D7" transform="translate(6,6)"/>
<path d="M0 0 C1.98 0.495 1.98 0.495 4 1 C3.67 2.32 3.34 3.64 3 5 C1.68 5 0.36 5 -1 5 C-0.67 3.35 -0.34 1.7 0 0 Z " fill="#FFE5E5" transform="translate(23,21)"/>
<path d="M0 0 C1.98 0.495 1.98 0.495 4 1 C3.67 2.32 3.34 3.64 3 5 C1.68 5 0.36 5 -1 5 C-0.67 3.35 -0.34 1.7 0 0 Z " fill="#FEE5E5" transform="translate(11,21)"/>
<path d="M0 0 C2.475 0.495 2.475 0.495 5 1 C4.67 2.32 4.34 3.64 4 5 C3.01 5 2.02 5 1 5 C0.67 3.35 0.34 1.7 0 0 Z " fill="#FEE4E3" transform="translate(22,6)"/>
</svg>
